<svg width="65" height="65" viewBox="0 0 65 65" fill="none" xmlns="http://www.w3.org/2000/svg">
<path fill-rule="evenodd" clip-rule="evenodd" d="M8.125 40.6251L42.2485 6.76491C42.4398 6.5756 42.6985 6.46996 42.9676 6.4712C43.2368 6.47244 43.4945 6.58045 43.6841 6.77151L58.3692 21.5582C58.5588 21.7503 58.665 22.0093 58.6647 22.2792C58.6644 22.5491 58.5575 22.8079 58.3675 22.9994L24.7173 56.771L8.125 56.8751V40.6251ZM12.3899 42.0454V52.8126H22.67L53.6263 21.9894L45.8479 14.361L16.4166 44.6297C16.3241 44.7253 16.2135 44.8015 16.0913 44.8538C15.969 44.9061 15.8375 44.9335 15.7046 44.9344C15.5716 44.9353 15.4397 44.9096 15.3168 44.8589C15.1939 44.8082 15.0823 44.7335 14.9886 44.6391L12.3899 42.0454Z" fill="white"/>
</svg>
