<svg width="63" height="61" viewBox="0 0 63 61" fill="none" xmlns="http://www.w3.org/2000/svg">
<path d="M49.7092 59.5186C49.2521 59.5186 48.7443 59.417 48.3381 59.2139L31.9357 51.0381L15.8889 59.9248C14.7209 60.585 13.2482 60.2803 12.3342 59.3154C11.7756 58.7061 11.5217 57.8428 11.6232 56.9795L14.3654 38.8506L0.908394 26.3076C0.0958942 25.5459 -0.208793 24.4287 0.146676 23.3623C0.451363 22.2959 1.31464 21.5342 2.43183 21.3819L20.5607 18.335L28.2795 1.67873C28.7365 0.713885 29.7014 0.0537285 30.7678 0.00294726C31.885 -0.047834 32.9006 0.561541 33.4084 1.52638L41.8889 17.8272L60.1193 20.0615C61.2365 20.2139 62.0998 20.9248 62.4553 21.9912C62.8107 23.0069 62.5568 24.1748 61.7951 24.9365L48.9475 38.0889L52.4514 56.1162C52.6037 56.9287 52.4006 57.792 51.8928 58.4522C51.3342 59.1123 50.5217 59.5186 49.7092 59.5186ZM31.8342 47.9404C32.2912 47.9404 32.799 48.042 33.2053 48.2451L49.4045 56.3194L45.9514 38.5459C45.7482 37.6319 46.0529 36.667 46.7131 36.0069L59.4084 23.1084L41.4318 20.874C40.5178 20.7725 39.6545 20.1631 39.2482 19.3506L30.9201 3.30373L23.2521 19.7061C22.8459 20.5694 22.0334 21.1787 21.1193 21.3311L3.24433 24.2764L16.4475 36.6162C17.1584 37.2764 17.4631 38.1904 17.3107 39.1553L14.6193 57.0303L30.4631 48.2959C30.9201 48.0928 31.3771 47.9912 31.8342 47.9404Z" fill="#CECE29"/>
</svg>
