<svg width="65" height="65" viewBox="0 0 65 65" fill="none" xmlns="http://www.w3.org/2000/svg">
<path d="M50.9336 61.3945C50.4766 61.3945 49.9688 61.293 49.5625 61.0898L33.1602 52.914L17.1133 61.8008C15.9453 62.4609 14.4727 62.1562 13.5586 61.1914C13 60.582 12.7461 59.7187 12.8477 58.8555L15.5899 40.7265L2.13282 28.1836C1.32032 27.4219 1.01563 26.3047 1.3711 25.2383C1.67579 24.1719 2.53907 23.4101 3.65626 23.2578L21.7852 20.2109L29.5039 3.55467C29.9609 2.58983 30.9258 1.92967 31.9922 1.87889C33.1094 1.82811 34.125 2.43749 34.6328 3.40233L43.1133 19.7031L61.3438 21.9375C62.4609 22.0898 63.3242 22.8008 63.6797 23.8672C64.0352 24.8828 63.7813 26.0508 63.0195 26.8125L50.1719 39.9648L53.6758 57.9922C53.8281 58.8047 53.625 59.668 53.1172 60.3281C52.5586 60.9883 51.7461 61.3945 50.9336 61.3945ZM33.0586 49.8164C33.5156 49.8164 34.0234 49.918 34.4297 50.1211L50.6289 58.1953L47.1758 40.4219C46.9727 39.5078 47.2774 38.543 47.9375 37.8828L60.6328 24.9844L42.6563 22.75C41.7422 22.6484 40.8789 22.039 40.4727 21.2265L32.1445 5.17967L24.4766 21.582C24.0703 22.4453 23.2578 23.0547 22.3438 23.207L4.46876 26.1523L17.6719 38.4922C18.3828 39.1523 18.6875 40.0664 18.5352 41.0312L15.8438 58.9062L31.6875 50.1719C32.1445 49.9687 32.6016 49.8672 33.0586 49.8164Z" fill="black"/>
</svg>
