<svg width="434" height="126" viewBox="0 0 434 126" fill="none" xmlns="http://www.w3.org/2000/svg">
<path d="M37.2812 24.125L33.3125 48.875C33.2292 49.4167 33.1875 49.7812 33.1875 49.9688C33.1875 50.7812 33.5729 51.1875 34.3438 51.1875C35.5938 51.1875 36.9479 50.5938 38.4062 49.4062C39.8854 48.1979 41.1667 46.4167 42.25 44.0625C43.3542 41.7083 43.9062 38.9583 43.9062 35.8125C43.9062 30.5 42.3021 26.2083 39.0938 22.9375C35.9062 19.6458 31.7188 18 26.5312 18C20.5104 18 15.5417 20.0833 11.625 24.25C7.70833 28.3958 5.75 33.9375 5.75 40.875C5.75 47.5625 7.65625 52.875 11.4688 56.8125C15.3021 60.7292 20.1771 62.6875 26.0938 62.6875C29.0104 62.6875 31.7812 62.1979 34.4062 61.2188C37.0312 60.2396 39.5208 58.7812 41.875 56.8438H48.4375C45.7292 60.3021 42.3646 62.9167 38.3438 64.6875C34.3438 66.4583 30.2708 67.3438 26.125 67.3438C19.0208 67.3438 13.0729 64.9479 8.28125 60.1562C3.51042 55.3438 1.125 49.0104 1.125 41.1562C1.125 33.3646 3.35417 26.7812 7.8125 21.4062C12.2708 16.0312 18.4688 13.3438 26.4062 13.3438C31.1354 13.3438 35 14.2604 38 16.0938C41 17.9062 43.5 20.4479 45.5 23.7188C47.5208 26.9688 48.5312 31 48.5312 35.8125C48.5312 42.2083 46.75 47.25 43.1875 50.9375C39.625 54.6042 36.0521 56.4375 32.4688 56.4375C29.7812 56.4375 28.1458 55.2292 27.5625 52.8125C26.1458 54.1875 24.9167 55.1458 23.875 55.6875C22.8542 56.2083 21.625 56.4688 20.1875 56.4688C17.0833 56.4688 14.5938 55.2604 12.7188 52.8438C10.8438 50.4271 9.90625 47.1979 9.90625 43.1562C9.90625 37.9479 11.2083 33.3229 13.8125 29.2812C16.4375 25.2188 19.625 23.1875 23.375 23.1875C24.875 23.1875 26.2292 23.5625 27.4375 24.3125C28.6458 25.0625 29.6979 26.1875 30.5938 27.6875L31.0938 24.125H37.2812ZM16.4062 44.9375C16.4062 46.8958 16.8229 48.5521 17.6562 49.9062C18.4896 51.2604 19.6042 51.9375 21 51.9375C22.3542 51.9375 23.5417 51.4062 24.5625 50.3438C25.6042 49.2812 26.5625 47.1042 27.4375 43.8125C28.3125 40.5 28.75 37.3438 28.75 34.3438C28.75 32.4688 28.3542 30.9583 27.5625 29.8125C26.7708 28.6458 25.6979 28.0625 24.3438 28.0625C21.8021 28.0625 19.8438 29.8542 18.4688 33.4375C17.0938 37 16.4062 40.8333 16.4062 44.9375ZM79.7812 39.1875H67.875V34.4062C67.875 32.7396 67.7396 31.6146 67.4688 31.0312C67.1979 30.4271 66.6979 30.125 65.9688 30.125C65.2396 30.125 64.75 30.3854 64.5 30.9062C64.25 31.4271 64.125 32.5938 64.125 34.4062V53.9688C64.125 55.4479 64.3125 56.5625 64.6875 57.3125C65.0625 58.0417 65.6146 58.4062 66.3438 58.4062C67.1979 58.4062 67.7708 58.0208 68.0625 57.25C68.375 56.4792 68.5312 55.0208 68.5312 52.875V47.9375H79.7812C79.7604 51.25 79.6354 53.7396 79.4062 55.4062C79.1979 57.0521 78.5 58.75 77.3125 60.5C76.1458 62.2292 74.6146 63.5417 72.7188 64.4375C70.8229 65.3125 68.4792 65.75 65.6875 65.75C62.125 65.75 59.3021 65.1458 57.2188 63.9375C55.1354 62.7083 53.6562 61 52.7812 58.8125C51.9271 56.6042 51.5 53.4792 51.5 49.4375V37.6562C51.5 34.1354 51.8542 31.4792 52.5625 29.6875C53.2708 27.8958 54.7812 26.3021 57.0938 24.9062C59.4062 23.4896 62.2188 22.7812 65.5312 22.7812C68.8229 22.7812 71.6354 23.4792 73.9688 24.875C76.3021 26.2708 77.8542 28.0312 78.625 30.1562C79.3958 32.2812 79.7812 35.2917 79.7812 39.1875ZM112.125 38.0938V48.25C112.125 51.9792 111.938 54.7188 111.562 56.4688C111.188 58.1979 110.385 59.8229 109.156 61.3438C107.927 62.8438 106.344 63.9583 104.406 64.6875C102.49 65.3958 100.281 65.75 97.7812 65.75C94.9896 65.75 92.625 65.4479 90.6875 64.8438C88.75 64.2188 87.2396 63.2917 86.1562 62.0625C85.0938 60.8125 84.3333 59.3125 83.875 57.5625C83.4167 55.7917 83.1875 53.1458 83.1875 49.625V39C83.1875 35.1458 83.6042 32.1354 84.4375 29.9688C85.2708 27.8021 86.7708 26.0625 88.9375 24.75C91.1042 23.4375 93.875 22.7812 97.25 22.7812C100.083 22.7812 102.51 23.2083 104.531 24.0625C106.573 24.8958 108.146 25.9896 109.25 27.3438C110.354 28.6979 111.104 30.0938 111.5 31.5312C111.917 32.9688 112.125 35.1562 112.125 38.0938ZM99.5 34.9688C99.5 32.8438 99.3854 31.5104 99.1562 30.9688C98.9271 30.4062 98.4375 30.125 97.6875 30.125C96.9375 30.125 96.4375 30.4062 96.1875 30.9688C95.9375 31.5104 95.8125 32.8438 95.8125 34.9688V53.6875C95.8125 55.6458 95.9375 56.9271 96.1875 57.5312C96.4375 58.1146 96.9271 58.4062 97.6562 58.4062C98.4062 58.4062 98.8958 58.1354 99.125 57.5938C99.375 57.0521 99.5 55.8854 99.5 54.0938V34.9688ZM129.156 23.5312L128.938 27.1875C130.062 25.7083 131.302 24.6042 132.656 23.875C134.01 23.1458 135.49 22.7812 137.094 22.7812C139.052 22.7812 140.74 23.3125 142.156 24.375C143.594 25.4167 144.49 26.625 144.844 28C145.198 29.375 145.375 31.7083 145.375 35V52.4688C145.375 56.2396 145.146 58.9271 144.688 60.5312C144.25 62.1146 143.333 63.3854 141.938 64.3438C140.562 65.2812 138.896 65.75 136.938 65.75C135.375 65.75 133.927 65.3854 132.594 64.6562C131.26 63.9271 130.042 62.8438 128.938 61.4062V70.9062H116.312V23.5312H129.156ZM132.75 35.5938C132.75 33.0312 132.656 31.4792 132.469 30.9375C132.281 30.3958 131.76 30.125 130.906 30.125C130.073 30.125 129.531 30.4375 129.281 31.0625C129.052 31.6875 128.938 33.1979 128.938 35.5938V52.7812C128.938 55.2812 129.062 56.8438 129.312 57.4688C129.562 58.0938 130.104 58.4062 130.938 58.4062C131.75 58.4062 132.25 58.125 132.438 57.5625C132.646 56.9792 132.75 55.5833 132.75 53.375V35.5938ZM176 23.5312L172.375 53.5312C171.812 58.2812 171.333 61.5208 170.938 63.25C170.562 64.9792 169.927 66.4062 169.031 67.5312C168.135 68.6562 166.885 69.4792 165.281 70C163.698 70.5417 161.156 70.8125 157.656 70.8125H150V64.1875C151.958 64.1875 153.219 64.0938 153.781 63.9062C154.344 63.6979 154.625 63.25 154.625 62.5625C154.625 62.2292 154.365 60.7812 153.844 58.2188L146.938 23.5312H158.406L162.531 51.5L164.531 23.5312H176ZM190.875 23.5312L190.375 28.9688C192.208 25.0729 194.865 23.0104 198.344 22.7812V37.375C196.031 37.375 194.333 37.6875 193.25 38.3125C192.167 38.9375 191.5 39.8125 191.25 40.9375C191 42.0417 190.875 44.6042 190.875 48.625V65H178.25V23.5312H190.875ZM214.188 14.4062V21H201.188V14.4062H214.188ZM214.188 23.5312V65H201.188V23.5312H214.188ZM247.438 23.5312V55.4688C247.438 59.7812 247.333 62.5729 247.125 63.8438C246.938 65.0938 246.24 66.4167 245.031 67.8125C243.823 69.2292 242.135 70.3021 239.969 71.0312C237.823 71.7812 235.115 72.1562 231.844 72.1562C227.823 72.1562 224.594 71.4688 222.156 70.0938C219.719 68.7396 218.458 66.0625 218.375 62.0625H230.625C230.625 63.8958 231.292 64.8125 232.625 64.8125C233.583 64.8125 234.219 64.5312 234.531 63.9688C234.844 63.4062 235 62.2292 235 60.4375V57.3125C233.917 58.2917 232.771 59.0312 231.562 59.5312C230.375 60.0312 229.125 60.2812 227.812 60.2812C225.542 60.2812 223.667 59.8229 222.188 58.9062C220.729 57.9896 219.729 56.7917 219.188 55.3125C218.646 53.8125 218.375 51.6875 218.375 48.9375V33.875C218.375 29.9375 219.083 27.1042 220.5 25.375C221.917 23.6458 224.073 22.7812 226.969 22.7812C228.552 22.7812 229.99 23.1042 231.281 23.75C232.594 24.3958 233.76 25.3646 234.781 26.6562L235.688 23.5312H247.438ZM234.781 34.5312C234.781 32.6354 234.667 31.4271 234.438 30.9062C234.229 30.3854 233.75 30.125 233 30.125C232.271 30.125 231.75 30.4271 231.438 31.0312C231.146 31.6146 231 32.7812 231 34.5312V48.4688C231 50.3229 231.115 51.5312 231.344 52.0938C231.573 52.6354 232.052 52.9062 232.781 52.9062C233.615 52.9062 234.156 52.5729 234.406 51.9062C234.656 51.2396 234.781 49.7292 234.781 47.375V34.5312ZM264.562 14.4062V25.7812C265.646 24.7812 266.812 24.0312 268.062 23.5312C269.333 23.0312 270.688 22.7812 272.125 22.7812C274.333 22.7812 276.208 23.3438 277.75 24.4688C279.312 25.5938 280.26 26.8958 280.594 28.375C280.948 29.8333 281.125 32.5104 281.125 36.4062V65H268.5V35.8125C268.5 33.3958 268.375 31.8438 268.125 31.1562C267.896 30.4688 267.365 30.125 266.531 30.125C265.76 30.125 265.24 30.4792 264.969 31.1875C264.698 31.8958 264.562 33.3021 264.562 35.4062V65H251.938V14.4062H264.562ZM298.812 18V24.5312H302.219V31.0938H298.812V53.2812C298.812 56.0104 298.948 57.5312 299.219 57.8438C299.51 58.1562 300.688 58.3125 302.75 58.3125V65H297.656C294.781 65 292.729 64.8854 291.5 64.6562C290.271 64.4062 289.188 63.8542 288.25 63C287.312 62.125 286.729 61.1354 286.5 60.0312C286.271 58.9062 286.156 56.2812 286.156 52.1562V31.0938H283.438V24.5312H286.156V18H298.812ZM317.625 23.5312L317.125 28.9688C318.958 25.0729 321.615 23.0104 325.094 22.7812V37.375C322.781 37.375 321.083 37.6875 320 38.3125C318.917 38.9375 318.25 39.8125 318 40.9375C317.75 42.0417 317.625 44.6042 317.625 48.625V65H305V23.5312H317.625ZM339.219 39.5938H327.375V36.8125C327.375 33.6042 327.74 31.1354 328.469 29.4062C329.219 27.6562 330.708 26.1146 332.938 24.7812C335.167 23.4479 338.062 22.7812 341.625 22.7812C345.896 22.7812 349.115 23.5417 351.281 25.0625C353.448 26.5625 354.75 28.4167 355.188 30.625C355.625 32.8125 355.844 37.3333 355.844 44.1875V65H343.562V61.3125C342.792 62.7917 341.792 63.9062 340.562 64.6562C339.354 65.3854 337.906 65.75 336.219 65.75C334.01 65.75 331.979 65.1354 330.125 63.9062C328.292 62.6562 327.375 59.9375 327.375 55.75V52.3438C327.375 49.2396 327.865 47.125 328.844 46C329.823 44.875 332.25 43.5625 336.125 42.0625C340.271 40.4375 342.49 39.3438 342.781 38.7812C343.073 38.2188 343.219 37.0729 343.219 35.3438C343.219 33.1771 343.052 31.7708 342.719 31.125C342.406 30.4583 341.875 30.125 341.125 30.125C340.271 30.125 339.74 30.4062 339.531 30.9688C339.323 31.5104 339.219 32.9375 339.219 35.25V39.5938ZM343.219 45.2812C341.198 46.7604 340.021 48 339.688 49C339.375 50 339.219 51.4375 339.219 53.3125C339.219 55.4583 339.354 56.8438 339.625 57.4688C339.917 58.0938 340.479 58.4062 341.312 58.4062C342.104 58.4062 342.615 58.1667 342.844 57.6875C343.094 57.1875 343.219 55.8958 343.219 53.8125V45.2812ZM373.5 18V24.5312H376.906V31.0938H373.5V53.2812C373.5 56.0104 373.635 57.5312 373.906 57.8438C374.198 58.1562 375.375 58.3125 377.438 58.3125V65H372.344C369.469 65 367.417 64.8854 366.188 64.6562C364.958 64.4062 363.875 63.8542 362.938 63C362 62.125 361.417 61.1354 361.188 60.0312C360.958 58.9062 360.844 56.2812 360.844 52.1562V31.0938H358.125V24.5312H360.844V18H373.5ZM408.281 45H391.938V53.9688C391.938 55.8438 392.073 57.0521 392.344 57.5938C392.615 58.1354 393.135 58.4062 393.906 58.4062C394.865 58.4062 395.5 58.0521 395.812 57.3438C396.146 56.6146 396.312 55.2188 396.312 53.1562V47.6875H408.281V50.75C408.281 53.3125 408.115 55.2812 407.781 56.6562C407.469 58.0312 406.719 59.5 405.531 61.0625C404.344 62.625 402.833 63.8021 401 64.5938C399.188 65.3646 396.906 65.75 394.156 65.75C391.49 65.75 389.135 65.3646 387.094 64.5938C385.052 63.8229 383.458 62.7708 382.312 61.4375C381.188 60.0833 380.406 58.6042 379.969 57C379.531 55.375 379.312 53.0208 379.312 49.9375V37.8438C379.312 34.2188 379.802 31.3646 380.781 29.2812C381.76 27.1771 383.365 25.5729 385.594 24.4688C387.823 23.3438 390.385 22.7812 393.281 22.7812C396.823 22.7812 399.74 23.4583 402.031 24.8125C404.344 26.1458 405.958 27.9271 406.875 30.1562C407.812 32.3646 408.281 35.4792 408.281 39.5V45ZM395.625 38.25V35.2188C395.625 33.0729 395.51 31.6875 395.281 31.0625C395.052 30.4375 394.583 30.125 393.875 30.125C393 30.125 392.458 30.3958 392.25 30.9375C392.042 31.4583 391.938 32.8854 391.938 35.2188V38.25H395.625ZM425.062 23.5312L424.562 28.9688C426.396 25.0729 429.052 23.0104 432.531 22.7812V37.375C430.219 37.375 428.521 37.6875 427.438 38.3125C426.354 38.9375 425.688 39.8125 425.438 40.9375C425.188 42.0417 425.062 44.6042 425.062 48.625V65H412.438V23.5312H425.062Z" fill="white"/>
<path d="M307.383 89.541V95.2363H302.988V118H295.588V95.2363H291.211V89.541H307.383ZM324.926 102.865V108.578C324.926 110.676 324.82 112.217 324.609 113.201C324.398 114.174 323.947 115.088 323.256 115.943C322.564 116.787 321.674 117.414 320.584 117.824C319.506 118.223 318.264 118.422 316.857 118.422C315.287 118.422 313.957 118.252 312.867 117.912C311.777 117.561 310.928 117.039 310.318 116.348C309.721 115.645 309.293 114.801 309.035 113.816C308.777 112.82 308.648 111.332 308.648 109.352V103.375C308.648 101.207 308.883 99.5137 309.352 98.2949C309.82 97.0762 310.664 96.0977 311.883 95.3594C313.102 94.6211 314.66 94.252 316.559 94.252C318.152 94.252 319.518 94.4922 320.654 94.9727C321.803 95.4414 322.688 96.0566 323.309 96.8184C323.93 97.5801 324.352 98.3652 324.574 99.1738C324.809 99.9824 324.926 101.213 324.926 102.865ZM317.824 101.107C317.824 99.9121 317.76 99.1621 317.631 98.8574C317.502 98.541 317.227 98.3828 316.805 98.3828C316.383 98.3828 316.102 98.541 315.961 98.8574C315.82 99.1621 315.75 99.9121 315.75 101.107V111.637C315.75 112.738 315.82 113.459 315.961 113.799C316.102 114.127 316.377 114.291 316.787 114.291C317.209 114.291 317.484 114.139 317.613 113.834C317.754 113.529 317.824 112.873 317.824 111.865V101.107ZM335.982 103.885V108.789H326.648V103.885H335.982ZM338.109 89.541H343.646C347.221 89.541 349.635 89.7051 350.889 90.0332C352.154 90.3613 353.115 90.9004 353.771 91.6504C354.428 92.4004 354.838 93.2383 355.002 94.1641C355.166 95.0781 355.248 96.8828 355.248 99.5781V109.545C355.248 112.1 355.125 113.811 354.879 114.678C354.645 115.533 354.229 116.207 353.631 116.699C353.033 117.18 352.295 117.52 351.416 117.719C350.537 117.906 349.213 118 347.443 118H338.109V89.541ZM345.51 94.4102V113.131C346.576 113.131 347.232 112.92 347.479 112.498C347.725 112.064 347.848 110.898 347.848 109V97.9434C347.848 96.6543 347.807 95.8281 347.725 95.4648C347.643 95.1016 347.455 94.8379 347.162 94.6738C346.869 94.498 346.318 94.4102 345.51 94.4102ZM373.863 102.865V108.578C373.863 110.676 373.758 112.217 373.547 113.201C373.336 114.174 372.885 115.088 372.193 115.943C371.502 116.787 370.611 117.414 369.521 117.824C368.443 118.223 367.201 118.422 365.795 118.422C364.225 118.422 362.895 118.252 361.805 117.912C360.715 117.561 359.865 117.039 359.256 116.348C358.658 115.645 358.23 114.801 357.973 113.816C357.715 112.82 357.586 111.332 357.586 109.352V103.375C357.586 101.207 357.82 99.5137 358.289 98.2949C358.758 97.0762 359.602 96.0977 360.82 95.3594C362.039 94.6211 363.598 94.252 365.496 94.252C367.09 94.252 368.455 94.4922 369.592 94.9727C370.74 95.4414 371.625 96.0566 372.246 96.8184C372.867 97.5801 373.289 98.3652 373.512 99.1738C373.746 99.9824 373.863 101.213 373.863 102.865ZM366.762 101.107C366.762 99.9121 366.697 99.1621 366.568 98.8574C366.439 98.541 366.164 98.3828 365.742 98.3828C365.32 98.3828 365.039 98.541 364.898 98.8574C364.758 99.1621 364.688 99.9121 364.688 101.107V111.637C364.688 112.738 364.758 113.459 364.898 113.799C365.039 114.127 365.314 114.291 365.725 114.291C366.146 114.291 366.422 114.139 366.551 113.834C366.691 113.529 366.762 112.873 366.762 111.865V101.107ZM384.92 103.885V108.789H375.586V103.885H384.92ZM394.148 89.541V118H386.836V89.541H394.148ZM404.027 89.541V93.25H396.715V89.541H404.027ZM404.027 94.6738V118H396.715V94.6738H404.027ZM421.096 102.127H414.803V100.861C414.803 99.7832 414.738 99.1035 414.609 98.8223C414.492 98.5293 414.188 98.3828 413.695 98.3828C413.297 98.3828 412.998 98.5176 412.799 98.7871C412.6 99.0449 412.5 99.4375 412.5 99.9648C412.5 100.68 412.547 101.207 412.641 101.547C412.746 101.875 413.045 102.238 413.537 102.637C414.041 103.035 415.066 103.615 416.613 104.377C418.676 105.385 420.029 106.334 420.674 107.225C421.318 108.115 421.641 109.41 421.641 111.109C421.641 113.008 421.395 114.443 420.902 115.416C420.41 116.377 419.584 117.121 418.424 117.648C417.275 118.164 415.887 118.422 414.258 118.422C412.453 118.422 410.906 118.141 409.617 117.578C408.34 117.016 407.461 116.254 406.98 115.293C406.5 114.332 406.26 112.879 406.26 110.934V109.809H412.553V111.285C412.553 112.539 412.629 113.354 412.781 113.729C412.945 114.104 413.262 114.291 413.73 114.291C414.234 114.291 414.586 114.168 414.785 113.922C414.984 113.664 415.084 113.131 415.084 112.322C415.084 111.209 414.955 110.512 414.697 110.23C414.428 109.949 413.051 109.117 410.566 107.734C408.48 106.562 407.209 105.502 406.752 104.553C406.295 103.592 406.066 102.455 406.066 101.143C406.066 99.2793 406.312 97.9082 406.805 97.0293C407.297 96.1387 408.129 95.4531 409.301 94.9727C410.484 94.4922 411.855 94.252 413.414 94.252C414.961 94.252 416.273 94.4512 417.352 94.8496C418.441 95.2363 419.273 95.752 419.848 96.3965C420.434 97.041 420.785 97.6387 420.902 98.1895C421.031 98.7402 421.096 99.6016 421.096 100.773V102.127ZM431.027 91.5625V95.2363H432.943V98.9277H431.027V111.408C431.027 112.943 431.104 113.799 431.256 113.975C431.42 114.15 432.082 114.238 433.242 114.238V118H430.377C428.76 118 427.605 117.936 426.914 117.807C426.223 117.666 425.613 117.355 425.086 116.875C424.559 116.383 424.23 115.826 424.102 115.205C423.973 114.572 423.908 113.096 423.908 110.775V98.9277H422.379V95.2363H423.908V91.5625H431.027Z" fill="#2DD8EB"/>
<rect x="278" y="78" width="3" height="48" fill="#2DD8EB"/>
</svg>
